<svg width="690" height="1176" viewBox="0 0 690 1176" class="keymap" xmlns="http://www.w3.org/2000/svg" xmlns:xlink="http://www.w3.org/1999/xlink">
<style>/* inherit to force styles through use tags */
svg path {
    fill: inherit;
}

/* font and background color specifications */
svg.keymap {
    font-family: SFMono-Regular,Consolas,Liberation Mono,Menlo,monospace;
    font-size: 14px;
    font-kerning: normal;
    text-rendering: optimizeLegibility;
    fill: #24292e;
}

/* default key styling */
rect.key {
    fill: #f6f8fa;
}

rect.key, rect.combo {
    stroke: #c9cccf;
    stroke-width: 1;
}

/* default key side styling, only used is draw_key_sides is set */
rect.side {
    filter: brightness(90%);
}

/* color accent for combo boxes */
rect.combo, rect.combo-separate {
    fill: #cdf;
}

/* color accent for held keys */
rect.held, rect.combo.held {
    fill: #fdd;
}

/* color accent for ghost (optional) keys */
rect.ghost, rect.combo.ghost {
    stroke-dasharray: 4, 4;
    stroke-width: 2;
}

text {
    text-anchor: middle;
    dominant-baseline: middle;
}

/* styling for layer labels */
text.label {
    font-weight: bold;
    text-anchor: start;
    stroke: white;
    stroke-width: 4;
    paint-order: stroke;
}

/* styling for optional footer */
text.footer {
    text-anchor: end;
    dominant-baseline: auto;
    stroke: white;
    stroke-width: 4;
    paint-order: stroke;
}

/* styling for combo tap, and key hold/shifted label text */
text.combo, text.hold, text.shifted {
    font-size: 11px;
}

text.hold {
    text-anchor: middle;
    dominant-baseline: auto;
}

text.shifted {
    text-anchor: middle;
    dominant-baseline: hanging;
}

/* styling for hold/shifted label text in combo box */
text.combo.hold, text.combo.shifted {
    font-size: 8px;
}

/* lighter symbol for transparent keys */
text.trans {
    fill: #7b7e81;
}

/* styling for combo dendrons */
path.combo {
    stroke-width: 1;
    stroke: gray;
    fill: none;
}

/* Start Tabler Icons Cleanup */
/* cannot use height/width with glyphs */
.icon-tabler > path {
    fill: inherit;
    stroke: inherit;
    stroke-width: 2;
}
/* hide tabler's default box */
.icon-tabler > path[stroke="none"][fill="none"] {
    visibility: hidden;
}
/* End Tabler Icons Cleanup */

@media (prefers-color-scheme: dark) {
svg.keymap { fill: #d1d6db; }
rect.key { fill: #3f4750; }
rect.key, rect.combo { stroke: #60666c; }
rect.combo, rect.combo-separate { fill: #1f3d7a; }
rect.held, rect.combo.held { fill: #854747; }
text.label, text.footer { stroke: black; }
text.trans { fill: #7e8184; }
path.combo { stroke: #7f7f7f; }

}</style>
<g transform="translate(30, 0)" class="layer-Cmk">
<text x="0" y="28" class="label">Cmk:</text>
<g transform="translate(0, 56)">
<g transform="translate(30, 56)" class="key keypos-0">
<rect rx="6" ry="6" x="-28" y="-26" width="56" height="52" class="key"/>
<text x="0" y="0" class="key tap">Q</text>
</g>
<g transform="translate(90, 28)" class="key keypos-1">
<rect rx="6" ry="6" x="-28" y="-26" width="56" height="52" class="key"/>
<text x="0" y="0" class="key tap">W</text>
</g>
<g transform="translate(150, 28)" class="key keypos-2">
<rect rx="6" ry="6" x="-28" y="-26" width="56" height="52" class="key"/>
<text x="0" y="0" class="key tap">F</text>
</g>
<g transform="translate(210, 28)" class="key keypos-3">
<rect rx="6" ry="6" x="-28" y="-26" width="56" height="52" class="key"/>
<text x="0" y="0" class="key tap">P</text>
</g>
<g transform="translate(270, 56)" class="key keypos-4">
<rect rx="6" ry="6" x="-28" y="-26" width="56" height="52" class="key"/>
<text x="0" y="0" class="key tap">B</text>
</g>
<g transform="translate(360, 56)" class="key keypos-5">
<rect rx="6" ry="6" x="-28" y="-26" width="56" height="52" class="key"/>
<text x="0" y="0" class="key tap">J</text>
</g>
<g transform="translate(420, 28)" class="key keypos-6">
<rect rx="6" ry="6" x="-28" y="-26" width="56" height="52" class="key"/>
<text x="0" y="0" class="key tap">L</text>
</g>
<g transform="translate(480, 28)" class="key keypos-7">
<rect rx="6" ry="6" x="-28" y="-26" width="56" height="52" class="key"/>
<text x="0" y="0" class="key tap">U</text>
</g>
<g transform="translate(540, 28)" class="key keypos-8">
<rect rx="6" ry="6" x="-28" y="-26" width="56" height="52" class="key"/>
<text x="0" y="0" class="key tap">Y</text>
</g>
<g transform="translate(600, 56)" class="key keypos-9">
<rect rx="6" ry="6" x="-28" y="-26" width="56" height="52" class="key"/>
<text x="0" y="0" class="key tap">;</text>
</g>
<g transform="translate(30, 112)" class="key keypos-10">
<rect rx="6" ry="6" x="-28" y="-26" width="56" height="52" class="key"/>
<text x="0" y="0" class="key tap">A</text>
</g>
<g transform="translate(90, 84)" class="key keypos-11">
<rect rx="6" ry="6" x="-28" y="-26" width="56" height="52" class="key"/>
<text x="0" y="0" class="key tap">R</text>
</g>
<g transform="translate(150, 84)" class="key keypos-12">
<rect rx="6" ry="6" x="-28" y="-26" width="56" height="52" class="key"/>
<text x="0" y="0" class="key tap">S</text>
</g>
<g transform="translate(210, 84)" class="key keypos-13">
<rect rx="6" ry="6" x="-28" y="-26" width="56" height="52" class="key"/>
<text x="0" y="0" class="key tap">T</text>
</g>
<g transform="translate(270, 112)" class="key keypos-14">
<rect rx="6" ry="6" x="-28" y="-26" width="56" height="52" class="key"/>
<text x="0" y="0" class="key tap">G</text>
</g>
<g transform="translate(360, 112)" class="key keypos-15">
<rect rx="6" ry="6" x="-28" y="-26" width="56" height="52" class="key"/>
<text x="0" y="0" class="key tap">M</text>
</g>
<g transform="translate(420, 84)" class="key keypos-16">
<rect rx="6" ry="6" x="-28" y="-26" width="56" height="52" class="key"/>
<text x="0" y="0" class="key tap">N</text>
</g>
<g transform="translate(480, 84)" class="key keypos-17">
<rect rx="6" ry="6" x="-28" y="-26" width="56" height="52" class="key"/>
<text x="0" y="0" class="key tap">E</text>
</g>
<g transform="translate(540, 84)" class="key keypos-18">
<rect rx="6" ry="6" x="-28" y="-26" width="56" height="52" class="key"/>
<text x="0" y="0" class="key tap">I</text>
</g>
<g transform="translate(600, 112)" class="key keypos-19">
<rect rx="6" ry="6" x="-28" y="-26" width="56" height="52" class="key"/>
<text x="0" y="0" class="key tap">O</text>
</g>
<g transform="translate(90, 140)" class="key keypos-20">
<rect rx="6" ry="6" x="-28" y="-26" width="56" height="52" class="key"/>
<text x="0" y="0" class="key tap">X</text>
</g>
<g transform="translate(150, 140)" class="key keypos-21">
<rect rx="6" ry="6" x="-28" y="-26" width="56" height="52" class="key"/>
<text x="0" y="0" class="key tap">C</text>
</g>
<g transform="translate(210, 140)" class="key keypos-22">
<rect rx="6" ry="6" x="-28" y="-26" width="56" height="52" class="key"/>
<text x="0" y="0" class="key tap">D</text>
</g>
<g transform="translate(420, 140)" class="key keypos-23">
<rect rx="6" ry="6" x="-28" y="-26" width="56" height="52" class="key"/>
<text x="0" y="0" class="key tap">H</text>
</g>
<g transform="translate(480, 140)" class="key keypos-24">
<rect rx="6" ry="6" x="-28" y="-26" width="56" height="52" class="key"/>
<text x="0" y="0" class="key tap">,</text>
</g>
<g transform="translate(540, 140)" class="key keypos-25">
<rect rx="6" ry="6" x="-28" y="-26" width="56" height="52" class="key"/>
<text x="0" y="0" class="key tap">.</text>
</g>
<g transform="translate(210, 196)" class="key keypos-26">
<rect rx="6" ry="6" x="-28" y="-26" width="56" height="52" class="key"/>
<text x="0" y="0" class="key tap">Nav</text>
</g>
<g transform="translate(270, 196)" class="key keypos-27">
<rect rx="6" ry="6" x="-28" y="-26" width="56" height="52" class="key"/>
<text x="0" y="0" class="key tap">SPACE</text>
</g>
<g transform="translate(360, 196)" class="key keypos-28">
<rect rx="6" ry="6" x="-28" y="-26" width="56" height="52" class="key"/>
<text x="0" y="0" class="key tap">RET</text>
</g>
<g transform="translate(420, 196)" class="key keypos-29">
<rect rx="6" ry="6" x="-28" y="-26" width="56" height="52" class="key"/>
<text x="0" y="0" class="key tap">Sym</text>
</g>
<g class="combo combopos-0">
<rect rx="6" ry="6" x="196" y="43" width="28" height="26" class="combo"/>
<text x="210" y="56" class="combo tap">LSHIFT</text>
</g>
<g class="combo combopos-1">
<rect rx="6" ry="6" x="406" y="43" width="28" height="26" class="combo"/>
<text x="420" y="56" class="combo tap">LSHIFT</text>
</g>
<g class="combo combopos-2">
<rect rx="6" ry="6" x="136" y="43" width="28" height="26" class="combo"/>
<text x="150" y="56" class="combo tap">LCTRL</text>
</g>
<g class="combo combopos-3">
<rect rx="6" ry="6" x="466" y="43" width="28" height="26" class="combo"/>
<text x="480" y="56" class="combo tap">LCTRL</text>
</g>
<g class="combo combopos-4">
<rect rx="6" ry="6" x="76" y="43" width="28" height="26" class="combo"/>
<text x="90" y="56" class="combo tap">LGUI</text>
</g>
<g class="combo combopos-5">
<rect rx="6" ry="6" x="526" y="43" width="28" height="26" class="combo"/>
<text x="540" y="56" class="combo tap">LGUI</text>
</g>
<g class="combo combopos-6">
<rect rx="6" ry="6" x="16" y="71" width="28" height="26" class="combo"/>
<text x="30" y="84" class="combo tap">LALT</text>
</g>
<g class="combo combopos-7">
<rect rx="6" ry="6" x="586" y="71" width="28" height="26" class="combo"/>
<text x="600" y="84" class="combo tap">LALT</text>
</g>
<g class="combo combopos-8">
<rect rx="6" ry="6" x="226" y="183" width="28" height="26" class="combo"/>
<text x="240" y="196" class="combo tap">BSPC</text>
</g>
<g class="combo combopos-9">
<rect rx="6" ry="6" x="346" y="71" width="28" height="26" class="combo"/>
<text x="360" y="84" class="combo tap">ESC</text>
</g>
<g class="combo combopos-10">
<rect rx="6" ry="6" x="256" y="71" width="28" height="26" class="combo"/>
<text x="270" y="84" class="combo tap">TAB</text>
</g>
<g class="combo combopos-11">
<rect rx="6" ry="6" x="376" y="183" width="28" height="26" class="combo"/>
<text x="390" y="196" class="combo tap">
<tspan x="390" dy="-0.6em">Ctl+</tspan><tspan x="390" dy="1.2em">A</tspan>
</text>
</g>
<g class="combo combopos-12">
<path d="M480,140 l-40,0" class="combo"/>
<path d="M480,140 l40,0" class="combo"/>
<rect rx="6" ry="6" x="466" y="127" width="28" height="26" class="combo"/>
<text x="480" y="140" class="combo tap">Fn</text>
</g>
</g>
</g>
<g transform="translate(30, 280)" class="layer-Nav">
<text x="0" y="28" class="label">Nav:</text>
<g transform="translate(0, 56)">
<g transform="translate(30, 56)" class="key keypos-0">
<rect rx="6" ry="6" x="-28" y="-26" width="56" height="52" class="key"/>
<text x="0" y="0" class="key tap">1</text>
</g>
<g transform="translate(90, 28)" class="key keypos-1">
<rect rx="6" ry="6" x="-28" y="-26" width="56" height="52" class="key"/>
<text x="0" y="0" class="key tap">2</text>
</g>
<g transform="translate(150, 28)" class="key keypos-2">
<rect rx="6" ry="6" x="-28" y="-26" width="56" height="52" class="key"/>
<text x="0" y="0" class="key tap">3</text>
</g>
<g transform="translate(210, 28)" class="key keypos-3">
<rect rx="6" ry="6" x="-28" y="-26" width="56" height="52" class="key"/>
<text x="0" y="0" class="key tap">4</text>
</g>
<g transform="translate(270, 56)" class="key keypos-4">
<rect rx="6" ry="6" x="-28" y="-26" width="56" height="52" class="key"/>
<text x="0" y="0" class="key tap">5</text>
</g>
<g transform="translate(360, 56)" class="key keypos-5">
<rect rx="6" ry="6" x="-28" y="-26" width="56" height="52" class="key"/>
<text x="0" y="0" class="key tap">6</text>
</g>
<g transform="translate(420, 28)" class="key keypos-6">
<rect rx="6" ry="6" x="-28" y="-26" width="56" height="52" class="key"/>
<text x="0" y="0" class="key tap">7</text>
</g>
<g transform="translate(480, 28)" class="key keypos-7">
<rect rx="6" ry="6" x="-28" y="-26" width="56" height="52" class="key"/>
<text x="0" y="0" class="key tap">8</text>
</g>
<g transform="translate(540, 28)" class="key keypos-8">
<rect rx="6" ry="6" x="-28" y="-26" width="56" height="52" class="key"/>
<text x="0" y="0" class="key tap">9</text>
</g>
<g transform="translate(600, 56)" class="key keypos-9">
<rect rx="6" ry="6" x="-28" y="-26" width="56" height="52" class="key"/>
<text x="0" y="0" class="key tap">0</text>
</g>
<g transform="translate(30, 112)" class="key keypos-10">
<rect rx="6" ry="6" x="-28" y="-26" width="56" height="52" class="key"/>
<text x="0" y="0" class="key tap"><tspan style="font-size: 70%">&amp;caps_word</tspan></text>
</g>
<g transform="translate(90, 84)" class="key keypos-11">
<rect rx="6" ry="6" x="-28" y="-26" width="56" height="52" class="key"/>
<text x="0" y="0" class="key tap">Z</text>
</g>
<g transform="translate(150, 84)" class="key keypos-12">
<rect rx="6" ry="6" x="-28" y="-26" width="56" height="52" class="key"/>
</g>
<g transform="translate(210, 84)" class="key keypos-13">
<rect rx="6" ry="6" x="-28" y="-26" width="56" height="52" class="key"/>
<text x="0" y="0" class="key tap">V</text>
</g>
<g transform="translate(270, 112)" class="key keypos-14">
<rect rx="6" ry="6" x="-28" y="-26" width="56" height="52" class="key"/>
</g>
<g transform="translate(360, 112)" class="key keypos-15">
<rect rx="6" ry="6" x="-28" y="-26" width="56" height="52" class="key"/>
<text x="0" y="0" class="key tap">LEFT</text>
</g>
<g transform="translate(420, 84)" class="key keypos-16">
<rect rx="6" ry="6" x="-28" y="-26" width="56" height="52" class="key"/>
<text x="0" y="0" class="key tap">DOWN</text>
</g>
<g transform="translate(480, 84)" class="key keypos-17">
<rect rx="6" ry="6" x="-28" y="-26" width="56" height="52" class="key"/>
<text x="0" y="0" class="key tap">UP</text>
</g>
<g transform="translate(540, 84)" class="key keypos-18">
<rect rx="6" ry="6" x="-28" y="-26" width="56" height="52" class="key"/>
<text x="0" y="0" class="key tap">RIGHT</text>
</g>
<g transform="translate(600, 112)" class="key keypos-19">
<rect rx="6" ry="6" x="-28" y="-26" width="56" height="52" class="key"/>
</g>
<g transform="translate(90, 140)" class="key keypos-20">
<rect rx="6" ry="6" x="-28" y="-26" width="56" height="52" class="key"/>
<text x="0" y="0" class="key tap">
<tspan x="0" dy="-0.6em">Sft+</tspan><tspan x="0" dy="1.2em">1</tspan>
</text>
</g>
<g transform="translate(150, 140)" class="key keypos-21">
<rect rx="6" ry="6" x="-28" y="-26" width="56" height="52" class="key"/>
<text x="0" y="0" class="key tap">
<tspan x="0" dy="-0.6em">Sft+</tspan><tspan x="0" dy="1.2em">3</tspan>
</text>
</g>
<g transform="translate(210, 140)" class="key keypos-22">
<rect rx="6" ry="6" x="-28" y="-26" width="56" height="52" class="key"/>
<text x="0" y="0" class="key tap">
<tspan x="0" dy="-0.6em">Sft+</tspan><tspan x="0" dy="1.2em">5</tspan>
</text>
</g>
<g transform="translate(420, 140)" class="key keypos-23">
<rect rx="6" ry="6" x="-28" y="-26" width="56" height="52" class="key"/>
<text x="0" y="0" class="key tap">
<tspan x="0" dy="-0.6em">Sft+</tspan><tspan x="0" dy="1.2em">7</tspan>
</text>
</g>
<g transform="translate(480, 140)" class="key keypos-24">
<rect rx="6" ry="6" x="-28" y="-26" width="56" height="52" class="key"/>
<text x="0" y="0" class="key tap">
<tspan x="0" dy="-0.6em">Sft+</tspan><tspan x="0" dy="1.2em">8</tspan>
</text>
</g>
<g transform="translate(540, 140)" class="key keypos-25">
<rect rx="6" ry="6" x="-28" y="-26" width="56" height="52" class="key"/>
</g>
<g transform="translate(210, 196)" class="key held keypos-26">
<rect rx="6" ry="6" x="-28" y="-26" width="56" height="52" class="key held"/>
</g>
<g transform="translate(270, 196)" class="key keypos-27">
<rect rx="6" ry="6" x="-28" y="-26" width="56" height="52" class="key"/>
</g>
<g transform="translate(360, 196)" class="key keypos-28">
<rect rx="6" ry="6" x="-28" y="-26" width="56" height="52" class="key"/>
</g>
<g transform="translate(420, 196)" class="key keypos-29">
<rect rx="6" ry="6" x="-28" y="-26" width="56" height="52" class="key"/>
</g>
<g class="combo combopos-0">
<rect rx="6" ry="6" x="196" y="43" width="28" height="26" class="combo"/>
<text x="210" y="56" class="combo tap">LSHIFT</text>
</g>
<g class="combo combopos-1">
<rect rx="6" ry="6" x="406" y="43" width="28" height="26" class="combo"/>
<text x="420" y="56" class="combo tap">LSHIFT</text>
</g>
<g class="combo combopos-2">
<rect rx="6" ry="6" x="136" y="43" width="28" height="26" class="combo"/>
<text x="150" y="56" class="combo tap">LCTRL</text>
</g>
<g class="combo combopos-3">
<rect rx="6" ry="6" x="466" y="43" width="28" height="26" class="combo"/>
<text x="480" y="56" class="combo tap">LCTRL</text>
</g>
<g class="combo combopos-4">
<rect rx="6" ry="6" x="76" y="43" width="28" height="26" class="combo"/>
<text x="90" y="56" class="combo tap">LGUI</text>
</g>
<g class="combo combopos-5">
<rect rx="6" ry="6" x="526" y="43" width="28" height="26" class="combo"/>
<text x="540" y="56" class="combo tap">LGUI</text>
</g>
<g class="combo combopos-6">
<rect rx="6" ry="6" x="16" y="71" width="28" height="26" class="combo"/>
<text x="30" y="84" class="combo tap">LALT</text>
</g>
<g class="combo combopos-7">
<rect rx="6" ry="6" x="586" y="71" width="28" height="26" class="combo"/>
<text x="600" y="84" class="combo tap">LALT</text>
</g>
<g class="combo combopos-8">
<rect rx="6" ry="6" x="226" y="183" width="28" height="26" class="combo"/>
<text x="240" y="196" class="combo tap">BSPC</text>
</g>
<g class="combo combopos-9">
<rect rx="6" ry="6" x="346" y="71" width="28" height="26" class="combo"/>
<text x="360" y="84" class="combo tap">ESC</text>
</g>
<g class="combo combopos-10">
<rect rx="6" ry="6" x="256" y="71" width="28" height="26" class="combo"/>
<text x="270" y="84" class="combo tap">TAB</text>
</g>
<g class="combo combopos-11">
<rect rx="6" ry="6" x="376" y="183" width="28" height="26" class="combo"/>
<text x="390" y="196" class="combo tap">
<tspan x="390" dy="-0.6em">Ctl+</tspan><tspan x="390" dy="1.2em">A</tspan>
</text>
</g>
<g class="combo combopos-12">
<path d="M480,140 l-40,0" class="combo"/>
<path d="M480,140 l40,0" class="combo"/>
<rect rx="6" ry="6" x="466" y="127" width="28" height="26" class="combo"/>
<text x="480" y="140" class="combo tap">Fn</text>
</g>
</g>
</g>
<g transform="translate(30, 560)" class="layer-Sym">
<text x="0" y="28" class="label">Sym:</text>
<g transform="translate(0, 56)">
<g transform="translate(30, 56)" class="key keypos-0">
<rect rx="6" ry="6" x="-28" y="-26" width="56" height="52" class="key"/>
<text x="0" y="0" class="key tap">
<tspan x="0" dy="-0.6em">Sft+</tspan><tspan x="0" dy="1.2em">6</tspan>
</text>
</g>
<g transform="translate(90, 28)" class="key keypos-1">
<rect rx="6" ry="6" x="-28" y="-26" width="56" height="52" class="key"/>
<text x="0" y="0" class="key tap">[</text>
</g>
<g transform="translate(150, 28)" class="key keypos-2">
<rect rx="6" ry="6" x="-28" y="-26" width="56" height="52" class="key"/>
<text x="0" y="0" class="key tap">
<tspan x="0" dy="-0.6em">Sft+</tspan><tspan x="0" dy="1.2em">2</tspan>
</text>
</g>
<g transform="translate(210, 28)" class="key keypos-3">
<rect rx="6" ry="6" x="-28" y="-26" width="56" height="52" class="key"/>
<text x="0" y="0" class="key tap">]</text>
</g>
<g transform="translate(270, 56)" class="key keypos-4">
<rect rx="6" ry="6" x="-28" y="-26" width="56" height="52" class="key"/>
<text x="0" y="0" class="key tap">#</text>
</g>
<g transform="translate(360, 56)" class="key keypos-5">
<rect rx="6" ry="6" x="-28" y="-26" width="56" height="52" class="key"/>
<text x="0" y="0" class="key tap">K</text>
</g>
<g transform="translate(420, 28)" class="key keypos-6">
<rect rx="6" ry="6" x="-28" y="-26" width="56" height="52" class="key"/>
<text x="0" y="0" class="key tap">+</text>
</g>
<g transform="translate(480, 28)" class="key keypos-7">
<rect rx="6" ry="6" x="-28" y="-26" width="56" height="52" class="key"/>
<text x="0" y="0" class="key tap">-</text>
</g>
<g transform="translate(540, 28)" class="key keypos-8">
<rect rx="6" ry="6" x="-28" y="-26" width="56" height="52" class="key"/>
<text x="0" y="0" class="key tap">_</text>
</g>
<g transform="translate(600, 56)" class="key keypos-9">
<rect rx="6" ry="6" x="-28" y="-26" width="56" height="52" class="key"/>
<text x="0" y="0" class="key tap">?</text>
</g>
<g transform="translate(30, 112)" class="key keypos-10">
<rect rx="6" ry="6" x="-28" y="-26" width="56" height="52" class="key"/>
<text x="0" y="0" class="key tap">
<tspan x="0" dy="-0.6em">Sft+</tspan><tspan x="0" dy="1.2em">4</tspan>
</text>
</g>
<g transform="translate(90, 84)" class="key keypos-11">
<rect rx="6" ry="6" x="-28" y="-26" width="56" height="52" class="key"/>
<text x="0" y="0" class="key tap">(</text>
</g>
<g transform="translate(150, 84)" class="key keypos-12">
<rect rx="6" ry="6" x="-28" y="-26" width="56" height="52" class="key"/>
<text x="0" y="0" class="key tap">&#x27;</text>
</g>
<g transform="translate(210, 84)" class="key keypos-13">
<rect rx="6" ry="6" x="-28" y="-26" width="56" height="52" class="key"/>
<text x="0" y="0" class="key tap">)</text>
</g>
<g transform="translate(270, 112)" class="key keypos-14">
<rect rx="6" ry="6" x="-28" y="-26" width="56" height="52" class="key"/>
<text x="0" y="0" class="key tap">
<tspan x="0" dy="-0.6em">Sft+</tspan><tspan x="0" dy="1.2em">|</tspan>
</text>
</g>
<g transform="translate(360, 112)" class="key keypos-15">
<rect rx="6" ry="6" x="-28" y="-26" width="56" height="52" class="key"/>
<text x="0" y="0" class="key tap">
<tspan x="0" dy="-0.6em">Sft+</tspan><tspan x="0" dy="1.2em">#</tspan>
</text>
</g>
<g transform="translate(420, 84)" class="key keypos-16">
<rect rx="6" ry="6" x="-28" y="-26" width="56" height="52" class="key"/>
<text x="0" y="0" class="key tap">&lt;</text>
</g>
<g transform="translate(480, 84)" class="key keypos-17">
<rect rx="6" ry="6" x="-28" y="-26" width="56" height="52" class="key"/>
<text x="0" y="0" class="key tap">=</text>
</g>
<g transform="translate(540, 84)" class="key keypos-18">
<rect rx="6" ry="6" x="-28" y="-26" width="56" height="52" class="key"/>
<text x="0" y="0" class="key tap">&gt;</text>
</g>
<g transform="translate(600, 112)" class="key keypos-19">
<rect rx="6" ry="6" x="-28" y="-26" width="56" height="52" class="key"/>
<text x="0" y="0" class="key tap">
<tspan x="0" dy="-0.6em">Sft+</tspan><tspan x="0" dy="1.2em">&#x27;</tspan>
</text>
</g>
<g transform="translate(90, 140)" class="key keypos-20">
<rect rx="6" ry="6" x="-28" y="-26" width="56" height="52" class="key"/>
<text x="0" y="0" class="key tap">{</text>
</g>
<g transform="translate(150, 140)" class="key keypos-21">
<rect rx="6" ry="6" x="-28" y="-26" width="56" height="52" class="key"/>
<text x="0" y="0" class="key tap">`</text>
</g>
<g transform="translate(210, 140)" class="key keypos-22">
<rect rx="6" ry="6" x="-28" y="-26" width="56" height="52" class="key"/>
<text x="0" y="0" class="key tap">}</text>
</g>
<g transform="translate(420, 140)" class="key keypos-23">
<rect rx="6" ry="6" x="-28" y="-26" width="56" height="52" class="key"/>
<text x="0" y="0" class="key tap">|</text>
</g>
<g transform="translate(480, 140)" class="key keypos-24">
<rect rx="6" ry="6" x="-28" y="-26" width="56" height="52" class="key"/>
</g>
<g transform="translate(540, 140)" class="key keypos-25">
<rect rx="6" ry="6" x="-28" y="-26" width="56" height="52" class="key"/>
<text x="0" y="0" class="key tap">/</text>
</g>
<g transform="translate(210, 196)" class="key keypos-26">
<rect rx="6" ry="6" x="-28" y="-26" width="56" height="52" class="key"/>
<text x="0" y="0" class="key tap">
<tspan x="0" dy="-0.6em">Ctl+</tspan><tspan x="0" dy="1.2em">BSPC</tspan>
</text>
</g>
<g transform="translate(270, 196)" class="key keypos-27">
<rect rx="6" ry="6" x="-28" y="-26" width="56" height="52" class="key"/>
<text x="0" y="0" class="key tap">DEL</text>
</g>
<g transform="translate(360, 196)" class="key keypos-28">
<rect rx="6" ry="6" x="-28" y="-26" width="56" height="52" class="key"/>
</g>
<g transform="translate(420, 196)" class="key held keypos-29">
<rect rx="6" ry="6" x="-28" y="-26" width="56" height="52" class="key held"/>
</g>
<g class="combo combopos-0">
<rect rx="6" ry="6" x="196" y="43" width="28" height="26" class="combo"/>
<text x="210" y="56" class="combo tap">LSHIFT</text>
</g>
<g class="combo combopos-1">
<rect rx="6" ry="6" x="406" y="43" width="28" height="26" class="combo"/>
<text x="420" y="56" class="combo tap">LSHIFT</text>
</g>
<g class="combo combopos-2">
<rect rx="6" ry="6" x="136" y="43" width="28" height="26" class="combo"/>
<text x="150" y="56" class="combo tap">LCTRL</text>
</g>
<g class="combo combopos-3">
<rect rx="6" ry="6" x="466" y="43" width="28" height="26" class="combo"/>
<text x="480" y="56" class="combo tap">LCTRL</text>
</g>
<g class="combo combopos-4">
<rect rx="6" ry="6" x="76" y="43" width="28" height="26" class="combo"/>
<text x="90" y="56" class="combo tap">LGUI</text>
</g>
<g class="combo combopos-5">
<rect rx="6" ry="6" x="526" y="43" width="28" height="26" class="combo"/>
<text x="540" y="56" class="combo tap">LGUI</text>
</g>
<g class="combo combopos-6">
<rect rx="6" ry="6" x="16" y="71" width="28" height="26" class="combo"/>
<text x="30" y="84" class="combo tap">LALT</text>
</g>
<g class="combo combopos-7">
<rect rx="6" ry="6" x="586" y="71" width="28" height="26" class="combo"/>
<text x="600" y="84" class="combo tap">LALT</text>
</g>
<g class="combo combopos-8">
<rect rx="6" ry="6" x="226" y="183" width="28" height="26" class="combo"/>
<text x="240" y="196" class="combo tap">BSPC</text>
</g>
<g class="combo combopos-9">
<rect rx="6" ry="6" x="346" y="71" width="28" height="26" class="combo"/>
<text x="360" y="84" class="combo tap">ESC</text>
</g>
<g class="combo combopos-10">
<rect rx="6" ry="6" x="256" y="71" width="28" height="26" class="combo"/>
<text x="270" y="84" class="combo tap">TAB</text>
</g>
<g class="combo combopos-11">
<rect rx="6" ry="6" x="376" y="183" width="28" height="26" class="combo"/>
<text x="390" y="196" class="combo tap">
<tspan x="390" dy="-0.6em">Ctl+</tspan><tspan x="390" dy="1.2em">A</tspan>
</text>
</g>
<g class="combo combopos-12">
<path d="M480,140 l-40,0" class="combo"/>
<path d="M480,140 l40,0" class="combo"/>
<rect rx="6" ry="6" x="466" y="127" width="28" height="26" class="combo"/>
<text x="480" y="140" class="combo tap">Fn</text>
</g>
</g>
</g>
<g transform="translate(30, 840)" class="layer-Fn">
<text x="0" y="28" class="label">Fn:</text>
<g transform="translate(0, 56)">
<g transform="translate(30, 56)" class="key keypos-0">
<rect rx="6" ry="6" x="-28" y="-26" width="56" height="52" class="key"/>
<text x="0" y="0" class="key tap">F1</text>
</g>
<g transform="translate(90, 28)" class="key keypos-1">
<rect rx="6" ry="6" x="-28" y="-26" width="56" height="52" class="key"/>
<text x="0" y="0" class="key tap">F2</text>
</g>
<g transform="translate(150, 28)" class="key keypos-2">
<rect rx="6" ry="6" x="-28" y="-26" width="56" height="52" class="key"/>
<text x="0" y="0" class="key tap">F3</text>
</g>
<g transform="translate(210, 28)" class="key keypos-3">
<rect rx="6" ry="6" x="-28" y="-26" width="56" height="52" class="key"/>
<text x="0" y="0" class="key tap">F4</text>
</g>
<g transform="translate(270, 56)" class="key keypos-4">
<rect rx="6" ry="6" x="-28" y="-26" width="56" height="52" class="key"/>
<text x="0" y="0" class="key tap">F5</text>
</g>
<g transform="translate(360, 56)" class="key keypos-5">
<rect rx="6" ry="6" x="-28" y="-26" width="56" height="52" class="key"/>
</g>
<g transform="translate(420, 28)" class="key keypos-6">
<rect rx="6" ry="6" x="-28" y="-26" width="56" height="52" class="key"/>
</g>
<g transform="translate(480, 28)" class="key keypos-7">
<rect rx="6" ry="6" x="-28" y="-26" width="56" height="52" class="key"/>
</g>
<g transform="translate(540, 28)" class="key keypos-8">
<rect rx="6" ry="6" x="-28" y="-26" width="56" height="52" class="key"/>
</g>
<g transform="translate(600, 56)" class="key keypos-9">
<rect rx="6" ry="6" x="-28" y="-26" width="56" height="52" class="key"/>
<text x="0" y="0" class="key tap"><tspan style="font-size: 70%">&amp;sys_reset</tspan></text>
</g>
<g transform="translate(30, 112)" class="key keypos-10">
<rect rx="6" ry="6" x="-28" y="-26" width="56" height="52" class="key"/>
<text x="0" y="0" class="key tap">F6</text>
</g>
<g transform="translate(90, 84)" class="key keypos-11">
<rect rx="6" ry="6" x="-28" y="-26" width="56" height="52" class="key"/>
<text x="0" y="0" class="key tap">F7</text>
</g>
<g transform="translate(150, 84)" class="key keypos-12">
<rect rx="6" ry="6" x="-28" y="-26" width="56" height="52" class="key"/>
<text x="0" y="0" class="key tap">F8</text>
</g>
<g transform="translate(210, 84)" class="key keypos-13">
<rect rx="6" ry="6" x="-28" y="-26" width="56" height="52" class="key"/>
<text x="0" y="0" class="key tap">F9</text>
</g>
<g transform="translate(270, 112)" class="key keypos-14">
<rect rx="6" ry="6" x="-28" y="-26" width="56" height="52" class="key"/>
<text x="0" y="0" class="key tap">F10</text>
</g>
<g transform="translate(360, 112)" class="key keypos-15">
<rect rx="6" ry="6" x="-28" y="-26" width="56" height="52" class="key"/>
</g>
<g transform="translate(420, 84)" class="key keypos-16">
<rect rx="6" ry="6" x="-28" y="-26" width="56" height="52" class="key"/>
</g>
<g transform="translate(480, 84)" class="key keypos-17">
<rect rx="6" ry="6" x="-28" y="-26" width="56" height="52" class="key"/>
</g>
<g transform="translate(540, 84)" class="key keypos-18">
<rect rx="6" ry="6" x="-28" y="-26" width="56" height="52" class="key"/>
</g>
<g transform="translate(600, 112)" class="key keypos-19">
<rect rx="6" ry="6" x="-28" y="-26" width="56" height="52" class="key"/>
<text x="0" y="0" class="key tap"><tspan style="font-size: 64%">&amp;bootloader</tspan></text>
</g>
<g transform="translate(90, 140)" class="key keypos-20">
<rect rx="6" ry="6" x="-28" y="-26" width="56" height="52" class="key"/>
<text x="0" y="0" class="key tap">F11</text>
</g>
<g transform="translate(150, 140)" class="key keypos-21">
<rect rx="6" ry="6" x="-28" y="-26" width="56" height="52" class="key"/>
<text x="0" y="0" class="key tap">F12</text>
</g>
<g transform="translate(210, 140)" class="key keypos-22">
<rect rx="6" ry="6" x="-28" y="-26" width="56" height="52" class="key"/>
<text x="0" y="0" class="key tap">F13</text>
</g>
<g transform="translate(420, 140)" class="key held keypos-23">
<rect rx="6" ry="6" x="-28" y="-26" width="56" height="52" class="key held"/>
</g>
<g transform="translate(480, 140)" class="key keypos-24">
<rect rx="6" ry="6" x="-28" y="-26" width="56" height="52" class="key"/>
</g>
<g transform="translate(540, 140)" class="key held keypos-25">
<rect rx="6" ry="6" x="-28" y="-26" width="56" height="52" class="key held"/>
</g>
<g transform="translate(210, 196)" class="key keypos-26">
<rect rx="6" ry="6" x="-28" y="-26" width="56" height="52" class="key"/>
</g>
<g transform="translate(270, 196)" class="key keypos-27">
<rect rx="6" ry="6" x="-28" y="-26" width="56" height="52" class="key"/>
</g>
<g transform="translate(360, 196)" class="key keypos-28">
<rect rx="6" ry="6" x="-28" y="-26" width="56" height="52" class="key"/>
</g>
<g transform="translate(420, 196)" class="key keypos-29">
<rect rx="6" ry="6" x="-28" y="-26" width="56" height="52" class="key"/>
</g>
<g class="combo combopos-0">
<rect rx="6" ry="6" x="196" y="43" width="28" height="26" class="combo"/>
<text x="210" y="56" class="combo tap">LSHIFT</text>
</g>
<g class="combo combopos-1">
<rect rx="6" ry="6" x="406" y="43" width="28" height="26" class="combo"/>
<text x="420" y="56" class="combo tap">LSHIFT</text>
</g>
<g class="combo combopos-2">
<rect rx="6" ry="6" x="136" y="43" width="28" height="26" class="combo"/>
<text x="150" y="56" class="combo tap">LCTRL</text>
</g>
<g class="combo combopos-3">
<rect rx="6" ry="6" x="466" y="43" width="28" height="26" class="combo"/>
<text x="480" y="56" class="combo tap">LCTRL</text>
</g>
<g class="combo combopos-4">
<rect rx="6" ry="6" x="76" y="43" width="28" height="26" class="combo"/>
<text x="90" y="56" class="combo tap">LGUI</text>
</g>
<g class="combo combopos-5">
<rect rx="6" ry="6" x="526" y="43" width="28" height="26" class="combo"/>
<text x="540" y="56" class="combo tap">LGUI</text>
</g>
<g class="combo combopos-6">
<rect rx="6" ry="6" x="16" y="71" width="28" height="26" class="combo"/>
<text x="30" y="84" class="combo tap">LALT</text>
</g>
<g class="combo combopos-7">
<rect rx="6" ry="6" x="586" y="71" width="28" height="26" class="combo"/>
<text x="600" y="84" class="combo tap">LALT</text>
</g>
<g class="combo combopos-8">
<rect rx="6" ry="6" x="226" y="183" width="28" height="26" class="combo"/>
<text x="240" y="196" class="combo tap">BSPC</text>
</g>
<g class="combo combopos-9">
<rect rx="6" ry="6" x="346" y="71" width="28" height="26" class="combo"/>
<text x="360" y="84" class="combo tap">ESC</text>
</g>
<g class="combo combopos-10">
<rect rx="6" ry="6" x="256" y="71" width="28" height="26" class="combo"/>
<text x="270" y="84" class="combo tap">TAB</text>
</g>
<g class="combo combopos-11">
<rect rx="6" ry="6" x="376" y="183" width="28" height="26" class="combo"/>
<text x="390" y="196" class="combo tap">
<tspan x="390" dy="-0.6em">Ctl+</tspan><tspan x="390" dy="1.2em">A</tspan>
</text>
</g>
<g class="combo combopos-12">
<path d="M480,140 l-40,0" class="combo"/>
<path d="M480,140 l40,0" class="combo"/>
<rect rx="6" ry="6" x="466" y="127" width="28" height="26" class="combo"/>
<text x="480" y="140" class="combo tap">Fn</text>
</g>
</g>
</g>
<text x="660.0" y="1148.0" class="footer">Created with <a href="https://github.com/caksoylar/keymap-drawer">keymap-drawer</a></text></svg>
