<svg width="732.0" height="1736.0" viewBox="0 0 732.0 1736.0" class="keymap" xmlns="http://www.w3.org/2000/svg">
<defs>/* start glyphs */
</defs>/* end glyphs */
<style>/* inherit to force styles through use tags*/
svg path {
    fill: inherit;
}
/* font and background color specifications */
svg.keymap {
    font-family: SFMono-Regular,Consolas,Liberation Mono,Menlo,monospace;
    font-size: 14px;
    font-kerning: normal;
    text-rendering: optimizeLegibility;
    fill: #24292e;
}

/* default key styling */
rect.key {
    fill: #f6f8fa;
    stroke: #c9cccf;
    stroke-width: 1;
}

/* color accent for combo boxes */
rect.combo {
    fill: #cdf;
}

/* color accent for held keys */
rect.held, rect.combo.held {
    fill: #fdd;
}

/* color accent for ghost (optional) keys */
rect.ghost, rect.combo.ghost {
    fill: #ddd;
}

text {
    text-anchor: middle;
    dominant-baseline: middle;
}

/* styling for layer labels */
text.label {
    font-weight: bold;
    text-anchor: start;
    stroke: white;
    stroke-width: 2;
    paint-order: stroke;
}

/* styling for combo tap, and key hold/shifted label text */
text.combo, text.hold, text.shifted {
    font-size: 11px;
}

text.hold {
    text-anchor: middle;
    dominant-baseline: auto;
}

text.shifted {
    text-anchor: middle;
    dominant-baseline: hanging;
}

/* styling for hold/shifted label text in combo box */
text.combo.hold, text.combo.shifted {
    font-size: 8px;
}

/* styling for combo dendrons */
path.combo {
    stroke-width: 1;
    stroke: gray;
    fill: none;
}

/* Start Tabler Icons Cleanup */
/* cannot use height/width with glyphs */
.icon-tabler > path {
    fill: inherit;
    stroke: inherit;
}
/* hide tabler's default box */
.icon-tabler > path[stroke="none"][fill="none"] {
    visibility: collapse;
}
/* End Tabler Icons Cleanup */
</style>
<g class="layer-BASE">
<text x="30.0" y="28.0" class="label">BASE:</text>
<rect rx="6.0" ry="6.0" x="32.0" y="110.08000000000001" width="52.0" height="52.0" class="key"/>
<text x="58.0" y="136.08" class="tap">Q</text>
<rect rx="6.0" ry="6.0" x="88.0" y="75.36" width="52.0" height="52.0" class="key"/>
<text x="114.0" y="101.36" class="tap">W</text>
<rect rx="6.0" ry="6.0" x="144.0" y="58.0" width="52.0" height="52.0" class="key"/>
<text x="170.0" y="84.0" class="tap">F</text>
<rect rx="6.0" ry="6.0" x="200.0" y="73.68" width="52.0" height="52.0" class="key"/>
<text x="226.0" y="99.68" class="tap">P</text>
<rect rx="6.0" ry="6.0" x="256.0" y="81.52" width="52.0" height="52.0" class="key"/>
<text x="282.0" y="107.52" class="tap">B</text>
<rect rx="6.0" ry="6.0" x="424.0" y="81.52" width="52.0" height="52.0" class="key"/>
<text x="450.0" y="107.52" class="tap">J</text>
<rect rx="6.0" ry="6.0" x="480.0" y="73.68" width="52.0" height="52.0" class="key"/>
<text x="506.0" y="99.68" class="tap">L</text>
<rect rx="6.0" ry="6.0" x="536.0" y="58.0" width="52.0" height="52.0" class="key"/>
<text x="562.0" y="84.0" class="tap">U</text>
<rect rx="6.0" ry="6.0" x="592.0" y="75.36" width="52.0" height="52.0" class="key"/>
<text x="618.0" y="101.36" class="tap">Y</text>
<rect rx="6.0" ry="6.0" x="648.0" y="110.08000000000001" width="52.0" height="52.0" class="key"/>
<text x="674.0" y="136.08" class="tap">;</text>
<rect rx="6.0" ry="6.0" x="32.0" y="166.07999999999998" width="52.0" height="52.0" class="key"/>
<text x="58.0" y="192.07999999999998" class="tap">A</text>
<rect rx="6.0" ry="6.0" x="88.0" y="131.36" width="52.0" height="52.0" class="key"/>
<text x="114.0" y="157.36" class="tap">R</text>
<rect rx="6.0" ry="6.0" x="144.0" y="114.0" width="52.0" height="52.0" class="key"/>
<text x="170.0" y="140.0" class="tap">S</text>
<rect rx="6.0" ry="6.0" x="200.0" y="129.68" width="52.0" height="52.0" class="key"/>
<text x="226.0" y="155.68" class="tap">T</text>
<rect rx="6.0" ry="6.0" x="256.0" y="137.51999999999998" width="52.0" height="52.0" class="key"/>
<text x="282.0" y="163.51999999999998" class="tap">G</text>
<rect rx="6.0" ry="6.0" x="424.0" y="137.51999999999998" width="52.0" height="52.0" class="key"/>
<text x="450.0" y="163.51999999999998" class="tap">M</text>
<rect rx="6.0" ry="6.0" x="480.0" y="129.68" width="52.0" height="52.0" class="key"/>
<text x="506.0" y="155.68" class="tap">N</text>
<rect rx="6.0" ry="6.0" x="536.0" y="114.0" width="52.0" height="52.0" class="key"/>
<text x="562.0" y="140.0" class="tap">E</text>
<rect rx="6.0" ry="6.0" x="592.0" y="131.36" width="52.0" height="52.0" class="key"/>
<text x="618.0" y="157.36" class="tap">I</text>
<rect rx="6.0" ry="6.0" x="648.0" y="166.07999999999998" width="52.0" height="52.0" class="key"/>
<text x="674.0" y="192.07999999999998" class="tap">O</text>
<rect rx="6.0" ry="6.0" x="32.0" y="222.08" width="52.0" height="52.0" class="key"/>
<text x="58.0" y="248.08" class="tap">Z</text>
<rect rx="6.0" ry="6.0" x="88.0" y="187.36" width="52.0" height="52.0" class="key"/>
<text x="114.0" y="213.36" class="tap">X</text>
<rect rx="6.0" ry="6.0" x="144.0" y="170.0" width="52.0" height="52.0" class="key"/>
<text x="170.0" y="196.0" class="tap">C</text>
<rect rx="6.0" ry="6.0" x="200.0" y="185.67999999999998" width="52.0" height="52.0" class="key"/>
<text x="226.0" y="211.67999999999998" class="tap">D</text>
<rect rx="6.0" ry="6.0" x="256.0" y="193.51999999999998" width="52.0" height="52.0" class="key"/>
<text x="282.0" y="219.51999999999998" class="tap">V</text>
<rect rx="6.0" ry="6.0" x="424.0" y="193.51999999999998" width="52.0" height="52.0" class="key"/>
<text x="450.0" y="219.51999999999998" class="tap">K</text>
<rect rx="6.0" ry="6.0" x="480.0" y="185.67999999999998" width="52.0" height="52.0" class="key"/>
<text x="506.0" y="211.67999999999998" class="tap">H</text>
<rect rx="6.0" ry="6.0" x="536.0" y="170.0" width="52.0" height="52.0" class="key"/>
<text x="562.0" y="196.0" class="tap">,</text>
<rect rx="6.0" ry="6.0" x="592.0" y="187.36" width="52.0" height="52.0" class="key"/>
<text x="618.0" y="213.36" class="tap">.</text>
<rect rx="6.0" ry="6.0" x="648.0" y="222.08" width="52.0" height="52.0" class="key"/>
<text x="674.0" y="248.08" class="tap">/</text>
<rect rx="6.0" ry="6.0" x="228.0" y="268.0" width="52.0" height="52.0" class="key"/>
<text x="254.0" y="294.0" class="tap">NAV</text>
<rect rx="6.0" ry="6.0" x="284.0" y="282.0" width="52.0" height="52.0" class="key"/>
<text x="310.0" y="308.0" class="tap">SPACE</text>
<rect rx="6.0" ry="6.0" x="396.0" y="282.0" width="52.0" height="52.0" class="key"/>
<text x="422.0" y="308.0" class="tap">RET</text>
<rect rx="6.0" ry="6.0" x="452.0" y="268.0" width="52.0" height="52.0" class="key"/>
<text x="478.0" y="294.0" class="tap">SYM</text>
<rect rx="6.0" ry="6.0" x="212.0" y="114.68" width="28.0" height="26.0" class="combo"/>
<text x="226.0" y="127.68" class="combo tap">LSHIFT</text>
<rect rx="6.0" ry="6.0" x="492.0" y="114.68" width="28.0" height="26.0" class="combo"/>
<text x="506.0" y="127.68" class="combo tap">LSHIFT</text>
<rect rx="6.0" ry="6.0" x="156.0" y="99.0" width="28.0" height="26.0" class="combo"/>
<text x="170.0" y="112.0" class="combo tap">LCTRL</text>
<rect rx="6.0" ry="6.0" x="548.0" y="99.0" width="28.0" height="26.0" class="combo"/>
<text x="562.0" y="112.0" class="combo tap">LCTRL</text>
<rect rx="6.0" ry="6.0" x="100.0" y="116.36000000000001" width="28.0" height="26.0" class="combo"/>
<text x="114.0" y="129.36" class="combo tap">LGUI</text>
<rect rx="6.0" ry="6.0" x="604.0" y="116.36000000000001" width="28.0" height="26.0" class="combo"/>
<text x="618.0" y="129.36" class="combo tap">LGUI</text>
<rect rx="6.0" ry="6.0" x="44.0" y="151.07999999999998" width="28.0" height="26.0" class="combo"/>
<text x="58.0" y="164.07999999999998" class="combo tap">LALT</text>
<rect rx="6.0" ry="6.0" x="660.0" y="151.07999999999998" width="28.0" height="26.0" class="combo"/>
<text x="674.0" y="164.07999999999998" class="combo tap">LALT</text>
<rect rx="6.0" ry="6.0" x="268.0" y="288.0" width="28.0" height="26.0" class="combo"/>
<text x="282.0" y="301.0" class="combo tap">BSPC</text>
<path d="M366.0,294.0 l-93.33333333333333,0.0" class="combo"/>
<path d="M366.0,294.0 l93.33333333333333,0.0" class="combo"/>
<rect rx="6.0" ry="6.0" x="352.0" y="281.0" width="28.0" height="26.0" class="combo"/>
<text x="366.0" y="294.0" class="combo tap">SYS</text>
<rect rx="6.0" ry="6.0" x="660.0" y="207.07999999999998" width="28.0" height="26.0" class="combo"/>
<text x="674.0" y="220.07999999999998" class="combo tap">FNS</text>
<rect rx="6.0" ry="6.0" x="436.0" y="122.51999999999998" width="28.0" height="26.0" class="combo"/>
<text x="450.0" y="135.51999999999998" class="combo tap">ESC</text>
<rect rx="6.0" ry="6.0" x="492.0" y="170.68" width="28.0" height="26.0" class="combo"/>
<text x="506.0" y="183.68" class="combo tap">
<tspan x="506.0" dy="-0.6em">PG</tspan><tspan x="506.0" dy="1.2em">DN</tspan></text>
<rect rx="6.0" ry="6.0" x="548.0" y="155.0" width="28.0" height="26.0" class="combo"/>
<text x="562.0" y="168.0" class="combo tap">
<tspan x="562.0" dy="-0.6em">PG</tspan><tspan x="562.0" dy="1.2em">UP</tspan></text>
<rect rx="6.0" ry="6.0" x="44.0" y="207.07999999999998" width="28.0" height="26.0" class="combo"/>
<text x="58.0" y="220.07999999999998" class="combo tap">HOME</text>
<rect rx="6.0" ry="6.0" x="268.0" y="178.51999999999998" width="28.0" height="26.0" class="combo"/>
<text x="282.0" y="191.51999999999998" class="combo tap">END</text>
<rect rx="6.0" ry="6.0" x="268.0" y="122.51999999999998" width="28.0" height="26.0" class="combo"/>
<text x="282.0" y="135.51999999999998" class="combo tap">TAB</text>
<rect rx="6.0" ry="6.0" x="436.0" y="288.0" width="28.0" height="26.0" class="combo"/>
<text x="450.0" y="301.0" class="combo tap">LC(A)</text>
</g>
<g class="layer-NAV">
<text x="30.0" y="364.0" class="label">NAV:</text>
<rect rx="6.0" ry="6.0" x="32.0" y="446.08000000000004" width="52.0" height="52.0" class="key"/>
<text x="58.0" y="472.08000000000004" class="tap">1</text>
<rect rx="6.0" ry="6.0" x="88.0" y="411.36" width="52.0" height="52.0" class="key"/>
<text x="114.0" y="437.36" class="tap">2</text>
<rect rx="6.0" ry="6.0" x="144.0" y="394.0" width="52.0" height="52.0" class="key"/>
<text x="170.0" y="420.0" class="tap">3</text>
<rect rx="6.0" ry="6.0" x="200.0" y="409.68" width="52.0" height="52.0" class="key"/>
<text x="226.0" y="435.68" class="tap">4</text>
<rect rx="6.0" ry="6.0" x="256.0" y="417.52" width="52.0" height="52.0" class="key"/>
<text x="282.0" y="443.52" class="tap">5</text>
<rect rx="6.0" ry="6.0" x="424.0" y="417.52" width="52.0" height="52.0" class="key"/>
<text x="450.0" y="443.52" class="tap">6</text>
<rect rx="6.0" ry="6.0" x="480.0" y="409.68" width="52.0" height="52.0" class="key"/>
<text x="506.0" y="435.68" class="tap">7</text>
<rect rx="6.0" ry="6.0" x="536.0" y="394.0" width="52.0" height="52.0" class="key"/>
<text x="562.0" y="420.0" class="tap">8</text>
<rect rx="6.0" ry="6.0" x="592.0" y="411.36" width="52.0" height="52.0" class="key"/>
<text x="618.0" y="437.36" class="tap">9</text>
<rect rx="6.0" ry="6.0" x="648.0" y="446.08000000000004" width="52.0" height="52.0" class="key"/>
<text x="674.0" y="472.08000000000004" class="tap">0</text>
<rect rx="6.0" ry="6.0" x="32.0" y="502.0799999999999" width="52.0" height="52.0" class="key"/>
<text x="58.0" y="528.0799999999999" class="tap">&amp;caps_word</text>
<rect rx="6.0" ry="6.0" x="88.0" y="467.36" width="52.0" height="52.0" class="key"/>
<rect rx="6.0" ry="6.0" x="144.0" y="450.0" width="52.0" height="52.0" class="key"/>
<text x="170.0" y="476.0" class="tap">,</text>
<rect rx="6.0" ry="6.0" x="200.0" y="465.68" width="52.0" height="52.0" class="key"/>
<text x="226.0" y="491.68" class="tap">.</text>
<rect rx="6.0" ry="6.0" x="256.0" y="473.52" width="52.0" height="52.0" class="key"/>
<rect rx="6.0" ry="6.0" x="424.0" y="473.52" width="52.0" height="52.0" class="key"/>
<text x="450.0" y="499.52" class="tap">LEFT</text>
<rect rx="6.0" ry="6.0" x="480.0" y="465.68" width="52.0" height="52.0" class="key"/>
<text x="506.0" y="491.68" class="tap">DOWN</text>
<rect rx="6.0" ry="6.0" x="536.0" y="450.0" width="52.0" height="52.0" class="key"/>
<text x="562.0" y="476.0" class="tap">UP</text>
<rect rx="6.0" ry="6.0" x="592.0" y="467.36" width="52.0" height="52.0" class="key"/>
<text x="618.0" y="493.36" class="tap">RIGHT</text>
<rect rx="6.0" ry="6.0" x="648.0" y="502.0799999999999" width="52.0" height="52.0" class="key"/>
<rect rx="6.0" ry="6.0" x="32.0" y="558.08" width="52.0" height="52.0" class="key"/>
<text x="58.0" y="584.08" class="tap">LS(1)</text>
<rect rx="6.0" ry="6.0" x="88.0" y="523.36" width="52.0" height="52.0" class="key"/>
<text x="114.0" y="549.36" class="tap">LS(2)</text>
<rect rx="6.0" ry="6.0" x="144.0" y="506.0" width="52.0" height="52.0" class="key"/>
<text x="170.0" y="532.0" class="tap">LS(3)</text>
<rect rx="6.0" ry="6.0" x="200.0" y="521.68" width="52.0" height="52.0" class="key"/>
<text x="226.0" y="547.68" class="tap">LS(4)</text>
<rect rx="6.0" ry="6.0" x="256.0" y="529.52" width="52.0" height="52.0" class="key"/>
<text x="282.0" y="555.52" class="tap">LS(5)</text>
<rect rx="6.0" ry="6.0" x="424.0" y="529.52" width="52.0" height="52.0" class="key"/>
<text x="450.0" y="555.52" class="tap">LS(6)</text>
<rect rx="6.0" ry="6.0" x="480.0" y="521.68" width="52.0" height="52.0" class="key"/>
<text x="506.0" y="547.68" class="tap">LS(7)</text>
<rect rx="6.0" ry="6.0" x="536.0" y="506.0" width="52.0" height="52.0" class="key"/>
<text x="562.0" y="532.0" class="tap">LS(8)</text>
<rect rx="6.0" ry="6.0" x="592.0" y="523.36" width="52.0" height="52.0" class="key"/>
<text x="618.0" y="549.36" class="tap">LS(9)</text>
<rect rx="6.0" ry="6.0" x="648.0" y="558.08" width="52.0" height="52.0" class="key"/>
<text x="674.0" y="584.08" class="tap">LS(0)</text>
<rect rx="6.0" ry="6.0" x="228.0" y="604.0" width="52.0" height="52.0" class="held key"/>
<rect rx="6.0" ry="6.0" x="284.0" y="618.0" width="52.0" height="52.0" class="key"/>
<rect rx="6.0" ry="6.0" x="396.0" y="618.0" width="52.0" height="52.0" class="key"/>
<text x="422.0" y="644.0" class="tap">TAB</text>
<rect rx="6.0" ry="6.0" x="452.0" y="604.0" width="52.0" height="52.0" class="key"/>
<text x="478.0" y="630.0" class="tap">LS(INS)</text>
<rect rx="6.0" ry="6.0" x="212.0" y="450.68" width="28.0" height="26.0" class="combo"/>
<text x="226.0" y="463.68" class="combo tap">LSHIFT</text>
<rect rx="6.0" ry="6.0" x="492.0" y="450.68" width="28.0" height="26.0" class="combo"/>
<text x="506.0" y="463.68" class="combo tap">LSHIFT</text>
<rect rx="6.0" ry="6.0" x="156.0" y="435.0" width="28.0" height="26.0" class="combo"/>
<text x="170.0" y="448.0" class="combo tap">LCTRL</text>
<rect rx="6.0" ry="6.0" x="548.0" y="435.0" width="28.0" height="26.0" class="combo"/>
<text x="562.0" y="448.0" class="combo tap">LCTRL</text>
<rect rx="6.0" ry="6.0" x="100.0" y="452.36" width="28.0" height="26.0" class="combo"/>
<text x="114.0" y="465.36" class="combo tap">LGUI</text>
<rect rx="6.0" ry="6.0" x="604.0" y="452.36" width="28.0" height="26.0" class="combo"/>
<text x="618.0" y="465.36" class="combo tap">LGUI</text>
<rect rx="6.0" ry="6.0" x="44.0" y="487.08" width="28.0" height="26.0" class="combo"/>
<text x="58.0" y="500.08" class="combo tap">LALT</text>
<rect rx="6.0" ry="6.0" x="660.0" y="487.08" width="28.0" height="26.0" class="combo"/>
<text x="674.0" y="500.08" class="combo tap">LALT</text>
<rect rx="6.0" ry="6.0" x="268.0" y="624.0" width="28.0" height="26.0" class="combo"/>
<text x="282.0" y="637.0" class="combo tap">BSPC</text>
<path d="M366.0,630.0 l-93.33333333333333,0.0" class="combo"/>
<path d="M366.0,630.0 l93.33333333333333,0.0" class="combo"/>
<rect rx="6.0" ry="6.0" x="352.0" y="617.0" width="28.0" height="26.0" class="combo"/>
<text x="366.0" y="630.0" class="combo tap">SYS</text>
<rect rx="6.0" ry="6.0" x="660.0" y="543.0799999999999" width="28.0" height="26.0" class="combo"/>
<text x="674.0" y="556.0799999999999" class="combo tap">FNS</text>
<rect rx="6.0" ry="6.0" x="436.0" y="458.52" width="28.0" height="26.0" class="combo"/>
<text x="450.0" y="471.52" class="combo tap">ESC</text>
<rect rx="6.0" ry="6.0" x="492.0" y="506.67999999999995" width="28.0" height="26.0" class="combo"/>
<text x="506.0" y="519.68" class="combo tap">
<tspan x="506.0" dy="-0.6em">PG</tspan><tspan x="506.0" dy="1.2em">DN</tspan></text>
<rect rx="6.0" ry="6.0" x="548.0" y="491.0" width="28.0" height="26.0" class="combo"/>
<text x="562.0" y="504.0" class="combo tap">
<tspan x="562.0" dy="-0.6em">PG</tspan><tspan x="562.0" dy="1.2em">UP</tspan></text>
<rect rx="6.0" ry="6.0" x="44.0" y="543.0799999999999" width="28.0" height="26.0" class="combo"/>
<text x="58.0" y="556.0799999999999" class="combo tap">HOME</text>
<rect rx="6.0" ry="6.0" x="268.0" y="514.52" width="28.0" height="26.0" class="combo"/>
<text x="282.0" y="527.52" class="combo tap">END</text>
<rect rx="6.0" ry="6.0" x="268.0" y="458.52" width="28.0" height="26.0" class="combo"/>
<text x="282.0" y="471.52" class="combo tap">TAB</text>
<rect rx="6.0" ry="6.0" x="436.0" y="624.0" width="28.0" height="26.0" class="combo"/>
<text x="450.0" y="637.0" class="combo tap">LC(A)</text>
</g>
<g class="layer-SYM">
<text x="30.0" y="700.0" class="label">SYM:</text>
<rect rx="6.0" ry="6.0" x="32.0" y="782.08" width="52.0" height="52.0" class="key"/>
<text x="58.0" y="808.08" class="tap">LS(6)</text>
<rect rx="6.0" ry="6.0" x="88.0" y="747.36" width="52.0" height="52.0" class="key"/>
<text x="114.0" y="773.36" class="tap">[</text>
<rect rx="6.0" ry="6.0" x="144.0" y="730.0" width="52.0" height="52.0" class="key"/>
<text x="170.0" y="756.0" class="tap">LS(2)</text>
<rect rx="6.0" ry="6.0" x="200.0" y="745.68" width="52.0" height="52.0" class="key"/>
<text x="226.0" y="771.68" class="tap">]</text>
<rect rx="6.0" ry="6.0" x="256.0" y="753.52" width="52.0" height="52.0" class="key"/>
<text x="282.0" y="779.52" class="tap">*</text>
<rect rx="6.0" ry="6.0" x="424.0" y="753.52" width="52.0" height="52.0" class="key"/>
<text x="450.0" y="779.52" class="tap">#</text>
<rect rx="6.0" ry="6.0" x="480.0" y="745.68" width="52.0" height="52.0" class="key"/>
<text x="506.0" y="771.68" class="tap">+</text>
<rect rx="6.0" ry="6.0" x="536.0" y="730.0" width="52.0" height="52.0" class="key"/>
<text x="562.0" y="756.0" class="tap">-</text>
<rect rx="6.0" ry="6.0" x="592.0" y="747.36" width="52.0" height="52.0" class="key"/>
<text x="618.0" y="773.36" class="tap">_</text>
<rect rx="6.0" ry="6.0" x="648.0" y="782.08" width="52.0" height="52.0" class="key"/>
<text x="674.0" y="808.08" class="tap">?</text>
<rect rx="6.0" ry="6.0" x="32.0" y="838.0799999999999" width="52.0" height="52.0" class="key"/>
<text x="58.0" y="864.0799999999999" class="tap">LS(4)</text>
<rect rx="6.0" ry="6.0" x="88.0" y="803.36" width="52.0" height="52.0" class="key"/>
<text x="114.0" y="829.36" class="tap">(</text>
<rect rx="6.0" ry="6.0" x="144.0" y="786.0" width="52.0" height="52.0" class="key"/>
<text x="170.0" y="812.0" class="tap">&#x27;</text>
<rect rx="6.0" ry="6.0" x="200.0" y="801.6800000000001" width="52.0" height="52.0" class="key"/>
<text x="226.0" y="827.6800000000001" class="tap">)</text>
<rect rx="6.0" ry="6.0" x="256.0" y="809.52" width="52.0" height="52.0" class="key"/>
<text x="282.0" y="835.52" class="tap">LS(7)</text>
<rect rx="6.0" ry="6.0" x="424.0" y="809.52" width="52.0" height="52.0" class="key"/>
<text x="450.0" y="835.52" class="tap">
<tspan x="450.0" dy="-1.2em">LS(NON</tspan><tspan x="450.0" dy="1.2em">US</tspan><tspan x="450.0" dy="1.2em">HASH)</tspan></text>
<rect rx="6.0" ry="6.0" x="480.0" y="801.6800000000001" width="52.0" height="52.0" class="key"/>
<text x="506.0" y="827.6800000000001" class="tap">&lt;</text>
<rect rx="6.0" ry="6.0" x="536.0" y="786.0" width="52.0" height="52.0" class="key"/>
<text x="562.0" y="812.0" class="tap">=</text>
<rect rx="6.0" ry="6.0" x="592.0" y="803.36" width="52.0" height="52.0" class="key"/>
<text x="618.0" y="829.36" class="tap">&gt;</text>
<rect rx="6.0" ry="6.0" x="648.0" y="838.0799999999999" width="52.0" height="52.0" class="key"/>
<text x="674.0" y="864.0799999999999" class="tap">LS(SQT)</text>
<rect rx="6.0" ry="6.0" x="32.0" y="894.08" width="52.0" height="52.0" class="key"/>
<text x="58.0" y="920.08" class="tap">LS(5)</text>
<rect rx="6.0" ry="6.0" x="88.0" y="859.36" width="52.0" height="52.0" class="key"/>
<text x="114.0" y="885.36" class="tap">{</text>
<rect rx="6.0" ry="6.0" x="144.0" y="842.0" width="52.0" height="52.0" class="key"/>
<text x="170.0" y="868.0" class="tap">`</text>
<rect rx="6.0" ry="6.0" x="200.0" y="857.68" width="52.0" height="52.0" class="key"/>
<text x="226.0" y="883.68" class="tap">}</text>
<rect rx="6.0" ry="6.0" x="256.0" y="865.52" width="52.0" height="52.0" class="key"/>
<text x="282.0" y="891.52" class="tap">
<tspan x="282.0" dy="-1.2em">LS(NON</tspan><tspan x="282.0" dy="1.2em">US</tspan><tspan x="282.0" dy="1.2em">BSLH)</tspan></text>
<rect rx="6.0" ry="6.0" x="424.0" y="865.52" width="52.0" height="52.0" class="key"/>
<text x="450.0" y="891.52" class="tap">|</text>
<rect rx="6.0" ry="6.0" x="480.0" y="857.68" width="52.0" height="52.0" class="key"/>
<text x="506.0" y="883.68" class="tap">!</text>
<rect rx="6.0" ry="6.0" x="536.0" y="842.0" width="52.0" height="52.0" class="key"/>
<text x="562.0" y="868.0" class="tap">.</text>
<rect rx="6.0" ry="6.0" x="592.0" y="859.36" width="52.0" height="52.0" class="key"/>
<text x="618.0" y="885.36" class="tap">LS(3)</text>
<rect rx="6.0" ry="6.0" x="648.0" y="894.08" width="52.0" height="52.0" class="key"/>
<text x="674.0" y="920.08" class="tap">/</text>
<rect rx="6.0" ry="6.0" x="228.0" y="940.0" width="52.0" height="52.0" class="key"/>
<text x="254.0" y="966.0" class="tap">LC(BSPC)</text>
<rect rx="6.0" ry="6.0" x="284.0" y="954.0" width="52.0" height="52.0" class="key"/>
<text x="310.0" y="980.0" class="tap">DEL</text>
<rect rx="6.0" ry="6.0" x="396.0" y="954.0" width="52.0" height="52.0" class="key"/>
<rect rx="6.0" ry="6.0" x="452.0" y="940.0" width="52.0" height="52.0" class="held key"/>
<rect rx="6.0" ry="6.0" x="212.0" y="786.6800000000001" width="28.0" height="26.0" class="combo"/>
<text x="226.0" y="799.6800000000001" class="combo tap">LSHIFT</text>
<rect rx="6.0" ry="6.0" x="492.0" y="786.6800000000001" width="28.0" height="26.0" class="combo"/>
<text x="506.0" y="799.6800000000001" class="combo tap">LSHIFT</text>
<rect rx="6.0" ry="6.0" x="156.0" y="771.0" width="28.0" height="26.0" class="combo"/>
<text x="170.0" y="784.0" class="combo tap">LCTRL</text>
<rect rx="6.0" ry="6.0" x="548.0" y="771.0" width="28.0" height="26.0" class="combo"/>
<text x="562.0" y="784.0" class="combo tap">LCTRL</text>
<rect rx="6.0" ry="6.0" x="100.0" y="788.36" width="28.0" height="26.0" class="combo"/>
<text x="114.0" y="801.36" class="combo tap">LGUI</text>
<rect rx="6.0" ry="6.0" x="604.0" y="788.36" width="28.0" height="26.0" class="combo"/>
<text x="618.0" y="801.36" class="combo tap">LGUI</text>
<rect rx="6.0" ry="6.0" x="44.0" y="823.08" width="28.0" height="26.0" class="combo"/>
<text x="58.0" y="836.08" class="combo tap">LALT</text>
<rect rx="6.0" ry="6.0" x="660.0" y="823.08" width="28.0" height="26.0" class="combo"/>
<text x="674.0" y="836.08" class="combo tap">LALT</text>
<rect rx="6.0" ry="6.0" x="268.0" y="960.0" width="28.0" height="26.0" class="combo"/>
<text x="282.0" y="973.0" class="combo tap">BSPC</text>
<path d="M366.0,966.0 l-93.33333333333333,0.0" class="combo"/>
<path d="M366.0,966.0 l93.33333333333333,0.0" class="combo"/>
<rect rx="6.0" ry="6.0" x="352.0" y="953.0" width="28.0" height="26.0" class="combo"/>
<text x="366.0" y="966.0" class="combo tap">SYS</text>
<rect rx="6.0" ry="6.0" x="660.0" y="879.0799999999999" width="28.0" height="26.0" class="combo"/>
<text x="674.0" y="892.0799999999999" class="combo tap">FNS</text>
<rect rx="6.0" ry="6.0" x="436.0" y="794.52" width="28.0" height="26.0" class="combo"/>
<text x="450.0" y="807.52" class="combo tap">ESC</text>
<rect rx="6.0" ry="6.0" x="492.0" y="842.68" width="28.0" height="26.0" class="combo"/>
<text x="506.0" y="855.68" class="combo tap">
<tspan x="506.0" dy="-0.6em">PG</tspan><tspan x="506.0" dy="1.2em">DN</tspan></text>
<rect rx="6.0" ry="6.0" x="548.0" y="827.0" width="28.0" height="26.0" class="combo"/>
<text x="562.0" y="840.0" class="combo tap">
<tspan x="562.0" dy="-0.6em">PG</tspan><tspan x="562.0" dy="1.2em">UP</tspan></text>
<rect rx="6.0" ry="6.0" x="44.0" y="879.0799999999999" width="28.0" height="26.0" class="combo"/>
<text x="58.0" y="892.0799999999999" class="combo tap">HOME</text>
<rect rx="6.0" ry="6.0" x="268.0" y="850.52" width="28.0" height="26.0" class="combo"/>
<text x="282.0" y="863.52" class="combo tap">END</text>
<rect rx="6.0" ry="6.0" x="268.0" y="794.52" width="28.0" height="26.0" class="combo"/>
<text x="282.0" y="807.52" class="combo tap">TAB</text>
<rect rx="6.0" ry="6.0" x="436.0" y="960.0" width="28.0" height="26.0" class="combo"/>
<text x="450.0" y="973.0" class="combo tap">LC(A)</text>
</g>
<g class="layer-SYS">
<text x="30.0" y="1036.0" class="label">SYS:</text>
<rect rx="6.0" ry="6.0" x="32.0" y="1118.08" width="52.0" height="52.0" class="key"/>
<text x="58.0" y="1144.08" class="tap">
<tspan x="58.0" dy="-0.6em">BT</tspan><tspan x="58.0" dy="1.2em">0</tspan></text>
<rect rx="6.0" ry="6.0" x="88.0" y="1083.36" width="52.0" height="52.0" class="key"/>
<text x="114.0" y="1109.36" class="tap">
<tspan x="114.0" dy="-0.6em">BT</tspan><tspan x="114.0" dy="1.2em">1</tspan></text>
<rect rx="6.0" ry="6.0" x="144.0" y="1066.0" width="52.0" height="52.0" class="key"/>
<text x="170.0" y="1092.0" class="tap">
<tspan x="170.0" dy="-0.6em">BT</tspan><tspan x="170.0" dy="1.2em">2</tspan></text>
<rect rx="6.0" ry="6.0" x="200.0" y="1081.68" width="52.0" height="52.0" class="key"/>
<text x="226.0" y="1107.68" class="tap">
<tspan x="226.0" dy="-0.6em">BT</tspan><tspan x="226.0" dy="1.2em">3</tspan></text>
<rect rx="6.0" ry="6.0" x="256.0" y="1089.52" width="52.0" height="52.0" class="key"/>
<text x="282.0" y="1115.52" class="tap">
<tspan x="282.0" dy="-0.6em">BT</tspan><tspan x="282.0" dy="1.2em">4</tspan></text>
<rect rx="6.0" ry="6.0" x="424.0" y="1089.52" width="52.0" height="52.0" class="key"/>
<text x="450.0" y="1115.52" class="tap">
<tspan x="450.0" dy="-0.6em">BT</tspan><tspan x="450.0" dy="1.2em">PRV</tspan></text>
<rect rx="6.0" ry="6.0" x="480.0" y="1081.68" width="52.0" height="52.0" class="key"/>
<rect rx="6.0" ry="6.0" x="536.0" y="1066.0" width="52.0" height="52.0" class="key"/>
<rect rx="6.0" ry="6.0" x="592.0" y="1083.36" width="52.0" height="52.0" class="key"/>
<rect rx="6.0" ry="6.0" x="648.0" y="1118.08" width="52.0" height="52.0" class="key"/>
<text x="674.0" y="1144.08" class="tap">
<tspan x="674.0" dy="-0.6em">BT</tspan><tspan x="674.0" dy="1.2em">CLR</tspan></text>
<rect rx="6.0" ry="6.0" x="32.0" y="1174.08" width="52.0" height="52.0" class="key"/>
<rect rx="6.0" ry="6.0" x="88.0" y="1139.36" width="52.0" height="52.0" class="key"/>
<rect rx="6.0" ry="6.0" x="144.0" y="1122.0" width="52.0" height="52.0" class="key"/>
<rect rx="6.0" ry="6.0" x="200.0" y="1137.68" width="52.0" height="52.0" class="key"/>
<rect rx="6.0" ry="6.0" x="256.0" y="1145.52" width="52.0" height="52.0" class="key"/>
<rect rx="6.0" ry="6.0" x="424.0" y="1145.52" width="52.0" height="52.0" class="key"/>
<text x="450.0" y="1171.52" class="tap">
<tspan x="450.0" dy="-0.6em">BT</tspan><tspan x="450.0" dy="1.2em">NXT</tspan></text>
<rect rx="6.0" ry="6.0" x="480.0" y="1137.68" width="52.0" height="52.0" class="key"/>
<rect rx="6.0" ry="6.0" x="536.0" y="1122.0" width="52.0" height="52.0" class="key"/>
<rect rx="6.0" ry="6.0" x="592.0" y="1139.36" width="52.0" height="52.0" class="key"/>
<rect rx="6.0" ry="6.0" x="648.0" y="1174.08" width="52.0" height="52.0" class="key"/>
<rect rx="6.0" ry="6.0" x="32.0" y="1230.08" width="52.0" height="52.0" class="key"/>
<text x="58.0" y="1256.08" class="tap">&amp;reset</text>
<rect rx="6.0" ry="6.0" x="88.0" y="1195.3600000000001" width="52.0" height="52.0" class="key"/>
<text x="114.0" y="1221.3600000000001" class="tap">&amp;bootloader</text>
<rect rx="6.0" ry="6.0" x="144.0" y="1178.0" width="52.0" height="52.0" class="key"/>
<rect rx="6.0" ry="6.0" x="200.0" y="1193.68" width="52.0" height="52.0" class="key"/>
<rect rx="6.0" ry="6.0" x="256.0" y="1201.52" width="52.0" height="52.0" class="key"/>
<rect rx="6.0" ry="6.0" x="424.0" y="1201.52" width="52.0" height="52.0" class="key"/>
<rect rx="6.0" ry="6.0" x="480.0" y="1193.68" width="52.0" height="52.0" class="key"/>
<rect rx="6.0" ry="6.0" x="536.0" y="1178.0" width="52.0" height="52.0" class="key"/>
<rect rx="6.0" ry="6.0" x="592.0" y="1195.3600000000001" width="52.0" height="52.0" class="key"/>
<text x="618.0" y="1221.3600000000001" class="tap">&amp;bootloader</text>
<rect rx="6.0" ry="6.0" x="648.0" y="1230.08" width="52.0" height="52.0" class="key"/>
<text x="674.0" y="1256.08" class="tap">&amp;reset</text>
<rect rx="6.0" ry="6.0" x="228.0" y="1276.0" width="52.0" height="52.0" class="held key"/>
<rect rx="6.0" ry="6.0" x="284.0" y="1290.0" width="52.0" height="52.0" class="key"/>
<rect rx="6.0" ry="6.0" x="396.0" y="1290.0" width="52.0" height="52.0" class="key"/>
<rect rx="6.0" ry="6.0" x="452.0" y="1276.0" width="52.0" height="52.0" class="held key"/>
<rect rx="6.0" ry="6.0" x="212.0" y="1122.68" width="28.0" height="26.0" class="combo"/>
<text x="226.0" y="1135.68" class="combo tap">LSHIFT</text>
<rect rx="6.0" ry="6.0" x="492.0" y="1122.68" width="28.0" height="26.0" class="combo"/>
<text x="506.0" y="1135.68" class="combo tap">LSHIFT</text>
<rect rx="6.0" ry="6.0" x="156.0" y="1107.0" width="28.0" height="26.0" class="combo"/>
<text x="170.0" y="1120.0" class="combo tap">LCTRL</text>
<rect rx="6.0" ry="6.0" x="548.0" y="1107.0" width="28.0" height="26.0" class="combo"/>
<text x="562.0" y="1120.0" class="combo tap">LCTRL</text>
<rect rx="6.0" ry="6.0" x="100.0" y="1124.36" width="28.0" height="26.0" class="combo"/>
<text x="114.0" y="1137.36" class="combo tap">LGUI</text>
<rect rx="6.0" ry="6.0" x="604.0" y="1124.36" width="28.0" height="26.0" class="combo"/>
<text x="618.0" y="1137.36" class="combo tap">LGUI</text>
<rect rx="6.0" ry="6.0" x="44.0" y="1159.08" width="28.0" height="26.0" class="combo"/>
<text x="58.0" y="1172.08" class="combo tap">LALT</text>
<rect rx="6.0" ry="6.0" x="660.0" y="1159.08" width="28.0" height="26.0" class="combo"/>
<text x="674.0" y="1172.08" class="combo tap">LALT</text>
<rect rx="6.0" ry="6.0" x="268.0" y="1296.0" width="28.0" height="26.0" class="combo"/>
<text x="282.0" y="1309.0" class="combo tap">BSPC</text>
<path d="M366.0,1302.0 l-93.33333333333333,0.0" class="combo"/>
<path d="M366.0,1302.0 l93.33333333333333,0.0" class="combo"/>
<rect rx="6.0" ry="6.0" x="352.0" y="1289.0" width="28.0" height="26.0" class="combo"/>
<text x="366.0" y="1302.0" class="combo tap">SYS</text>
<rect rx="6.0" ry="6.0" x="660.0" y="1215.08" width="28.0" height="26.0" class="combo"/>
<text x="674.0" y="1228.08" class="combo tap">FNS</text>
<rect rx="6.0" ry="6.0" x="436.0" y="1130.52" width="28.0" height="26.0" class="combo"/>
<text x="450.0" y="1143.52" class="combo tap">ESC</text>
<rect rx="6.0" ry="6.0" x="492.0" y="1178.68" width="28.0" height="26.0" class="combo"/>
<text x="506.0" y="1191.68" class="combo tap">
<tspan x="506.0" dy="-0.6em">PG</tspan><tspan x="506.0" dy="1.2em">DN</tspan></text>
<rect rx="6.0" ry="6.0" x="548.0" y="1163.0" width="28.0" height="26.0" class="combo"/>
<text x="562.0" y="1176.0" class="combo tap">
<tspan x="562.0" dy="-0.6em">PG</tspan><tspan x="562.0" dy="1.2em">UP</tspan></text>
<rect rx="6.0" ry="6.0" x="44.0" y="1215.08" width="28.0" height="26.0" class="combo"/>
<text x="58.0" y="1228.08" class="combo tap">HOME</text>
<rect rx="6.0" ry="6.0" x="268.0" y="1186.52" width="28.0" height="26.0" class="combo"/>
<text x="282.0" y="1199.52" class="combo tap">END</text>
<rect rx="6.0" ry="6.0" x="268.0" y="1130.52" width="28.0" height="26.0" class="combo"/>
<text x="282.0" y="1143.52" class="combo tap">TAB</text>
<rect rx="6.0" ry="6.0" x="436.0" y="1296.0" width="28.0" height="26.0" class="combo"/>
<text x="450.0" y="1309.0" class="combo tap">LC(A)</text>
</g>
<g class="layer-FNS">
<text x="30.0" y="1372.0" class="label">FNS:</text>
<rect rx="6.0" ry="6.0" x="32.0" y="1454.08" width="52.0" height="52.0" class="key"/>
<text x="58.0" y="1480.08" class="tap">F1</text>
<rect rx="6.0" ry="6.0" x="88.0" y="1419.36" width="52.0" height="52.0" class="key"/>
<text x="114.0" y="1445.36" class="tap">F2</text>
<rect rx="6.0" ry="6.0" x="144.0" y="1402.0" width="52.0" height="52.0" class="key"/>
<text x="170.0" y="1428.0" class="tap">F3</text>
<rect rx="6.0" ry="6.0" x="200.0" y="1417.68" width="52.0" height="52.0" class="key"/>
<text x="226.0" y="1443.68" class="tap">F4</text>
<rect rx="6.0" ry="6.0" x="256.0" y="1425.52" width="52.0" height="52.0" class="key"/>
<rect rx="6.0" ry="6.0" x="424.0" y="1425.52" width="52.0" height="52.0" class="key"/>
<rect rx="6.0" ry="6.0" x="480.0" y="1417.68" width="52.0" height="52.0" class="key"/>
<rect rx="6.0" ry="6.0" x="536.0" y="1402.0" width="52.0" height="52.0" class="key"/>
<rect rx="6.0" ry="6.0" x="592.0" y="1419.36" width="52.0" height="52.0" class="key"/>
<rect rx="6.0" ry="6.0" x="648.0" y="1454.08" width="52.0" height="52.0" class="key"/>
<rect rx="6.0" ry="6.0" x="32.0" y="1510.08" width="52.0" height="52.0" class="key"/>
<text x="58.0" y="1536.08" class="tap">F9</text>
<rect rx="6.0" ry="6.0" x="88.0" y="1475.36" width="52.0" height="52.0" class="key"/>
<text x="114.0" y="1501.36" class="tap">F10</text>
<rect rx="6.0" ry="6.0" x="144.0" y="1458.0" width="52.0" height="52.0" class="key"/>
<text x="170.0" y="1484.0" class="tap">F11</text>
<rect rx="6.0" ry="6.0" x="200.0" y="1473.68" width="52.0" height="52.0" class="key"/>
<text x="226.0" y="1499.68" class="tap">F12</text>
<rect rx="6.0" ry="6.0" x="256.0" y="1481.52" width="52.0" height="52.0" class="key"/>
<rect rx="6.0" ry="6.0" x="424.0" y="1481.52" width="52.0" height="52.0" class="key"/>
<rect rx="6.0" ry="6.0" x="480.0" y="1473.68" width="52.0" height="52.0" class="key"/>
<rect rx="6.0" ry="6.0" x="536.0" y="1458.0" width="52.0" height="52.0" class="key"/>
<rect rx="6.0" ry="6.0" x="592.0" y="1475.36" width="52.0" height="52.0" class="key"/>
<rect rx="6.0" ry="6.0" x="648.0" y="1510.08" width="52.0" height="52.0" class="held key"/>
<rect rx="6.0" ry="6.0" x="32.0" y="1566.08" width="52.0" height="52.0" class="key"/>
<text x="58.0" y="1592.08" class="tap">F5</text>
<rect rx="6.0" ry="6.0" x="88.0" y="1531.3600000000001" width="52.0" height="52.0" class="key"/>
<text x="114.0" y="1557.3600000000001" class="tap">F6</text>
<rect rx="6.0" ry="6.0" x="144.0" y="1514.0" width="52.0" height="52.0" class="key"/>
<text x="170.0" y="1540.0" class="tap">F7</text>
<rect rx="6.0" ry="6.0" x="200.0" y="1529.68" width="52.0" height="52.0" class="key"/>
<text x="226.0" y="1555.68" class="tap">F8</text>
<rect rx="6.0" ry="6.0" x="256.0" y="1537.52" width="52.0" height="52.0" class="key"/>
<rect rx="6.0" ry="6.0" x="424.0" y="1537.52" width="52.0" height="52.0" class="key"/>
<rect rx="6.0" ry="6.0" x="480.0" y="1529.68" width="52.0" height="52.0" class="key"/>
<rect rx="6.0" ry="6.0" x="536.0" y="1514.0" width="52.0" height="52.0" class="key"/>
<rect rx="6.0" ry="6.0" x="592.0" y="1531.3600000000001" width="52.0" height="52.0" class="key"/>
<rect rx="6.0" ry="6.0" x="648.0" y="1566.08" width="52.0" height="52.0" class="held key"/>
<rect rx="6.0" ry="6.0" x="228.0" y="1612.0" width="52.0" height="52.0" class="key"/>
<rect rx="6.0" ry="6.0" x="284.0" y="1626.0" width="52.0" height="52.0" class="key"/>
<rect rx="6.0" ry="6.0" x="396.0" y="1626.0" width="52.0" height="52.0" class="key"/>
<rect rx="6.0" ry="6.0" x="452.0" y="1612.0" width="52.0" height="52.0" class="key"/>
<rect rx="6.0" ry="6.0" x="212.0" y="1458.68" width="28.0" height="26.0" class="combo"/>
<text x="226.0" y="1471.68" class="combo tap">LSHIFT</text>
<rect rx="6.0" ry="6.0" x="492.0" y="1458.68" width="28.0" height="26.0" class="combo"/>
<text x="506.0" y="1471.68" class="combo tap">LSHIFT</text>
<rect rx="6.0" ry="6.0" x="156.0" y="1443.0" width="28.0" height="26.0" class="combo"/>
<text x="170.0" y="1456.0" class="combo tap">LCTRL</text>
<rect rx="6.0" ry="6.0" x="548.0" y="1443.0" width="28.0" height="26.0" class="combo"/>
<text x="562.0" y="1456.0" class="combo tap">LCTRL</text>
<rect rx="6.0" ry="6.0" x="100.0" y="1460.36" width="28.0" height="26.0" class="combo"/>
<text x="114.0" y="1473.36" class="combo tap">LGUI</text>
<rect rx="6.0" ry="6.0" x="604.0" y="1460.36" width="28.0" height="26.0" class="combo"/>
<text x="618.0" y="1473.36" class="combo tap">LGUI</text>
<rect rx="6.0" ry="6.0" x="44.0" y="1495.08" width="28.0" height="26.0" class="combo"/>
<text x="58.0" y="1508.08" class="combo tap">LALT</text>
<rect rx="6.0" ry="6.0" x="660.0" y="1495.08" width="28.0" height="26.0" class="combo"/>
<text x="674.0" y="1508.08" class="combo tap">LALT</text>
<rect rx="6.0" ry="6.0" x="268.0" y="1632.0" width="28.0" height="26.0" class="combo"/>
<text x="282.0" y="1645.0" class="combo tap">BSPC</text>
<path d="M366.0,1638.0 l-93.33333333333333,0.0" class="combo"/>
<path d="M366.0,1638.0 l93.33333333333333,0.0" class="combo"/>
<rect rx="6.0" ry="6.0" x="352.0" y="1625.0" width="28.0" height="26.0" class="combo"/>
<text x="366.0" y="1638.0" class="combo tap">SYS</text>
<rect rx="6.0" ry="6.0" x="660.0" y="1551.08" width="28.0" height="26.0" class="combo"/>
<text x="674.0" y="1564.08" class="combo tap">FNS</text>
<rect rx="6.0" ry="6.0" x="436.0" y="1466.52" width="28.0" height="26.0" class="combo"/>
<text x="450.0" y="1479.52" class="combo tap">ESC</text>
<rect rx="6.0" ry="6.0" x="492.0" y="1514.68" width="28.0" height="26.0" class="combo"/>
<text x="506.0" y="1527.68" class="combo tap">
<tspan x="506.0" dy="-0.6em">PG</tspan><tspan x="506.0" dy="1.2em">DN</tspan></text>
<rect rx="6.0" ry="6.0" x="548.0" y="1499.0" width="28.0" height="26.0" class="combo"/>
<text x="562.0" y="1512.0" class="combo tap">
<tspan x="562.0" dy="-0.6em">PG</tspan><tspan x="562.0" dy="1.2em">UP</tspan></text>
<rect rx="6.0" ry="6.0" x="44.0" y="1551.08" width="28.0" height="26.0" class="combo"/>
<text x="58.0" y="1564.08" class="combo tap">HOME</text>
<rect rx="6.0" ry="6.0" x="268.0" y="1522.52" width="28.0" height="26.0" class="combo"/>
<text x="282.0" y="1535.52" class="combo tap">END</text>
<rect rx="6.0" ry="6.0" x="268.0" y="1466.52" width="28.0" height="26.0" class="combo"/>
<text x="282.0" y="1479.52" class="combo tap">TAB</text>
<rect rx="6.0" ry="6.0" x="436.0" y="1632.0" width="28.0" height="26.0" class="combo"/>
<text x="450.0" y="1645.0" class="combo tap">LC(A)</text>
</g>
</svg>
